<mxfile host="app.diagrams.net" modified="2024-01-22T03:12:38.799Z" agent="Mozilla/5.0 (Windows NT 10.0; Win64; x64) AppleWebKit/537.36 (KHTML, like Gecko) Chrome/120.0.0.0 Safari/537.36" etag="3vKDD0qIegsY3bps7KvS" version="22.1.21" type="github">
  <diagram name="페이지-1" id="SJT4u1PBAeTd0MuI108T">
    <mxGraphModel dx="1136" dy="-558" grid="1" gridSize="10" guides="1" tooltips="1" connect="1" arrows="1" fold="1" page="1" pageScale="1" pageWidth="827" pageHeight="1169" math="0" shadow="0">
      <root>
        <mxCell id="0" />
        <mxCell id="1" parent="0" />
        <mxCell id="h-v0uyKteCco3msM5NHK-1" value="" style="rounded=0;whiteSpace=wrap;html=1;align=left;" vertex="1" parent="1">
          <mxGeometry x="90" y="1247" width="640" height="890" as="geometry" />
        </mxCell>
        <mxCell id="h-v0uyKteCco3msM5NHK-2" value="시작" style="strokeWidth=2;html=1;shape=mxgraph.flowchart.terminator;whiteSpace=wrap;" vertex="1" parent="1">
          <mxGeometry x="334.75" y="1270" width="80" height="50" as="geometry" />
        </mxCell>
        <mxCell id="h-v0uyKteCco3msM5NHK-3" value="전압 인가&lt;br&gt;- B+BATT, LATCH SEN, B+LDC, IG3 = 13.8V&lt;br&gt;- 고전압 배터리 셀 전압 : 4.3V" style="rounded=0;whiteSpace=wrap;html=1;align=left;" vertex="1" parent="1">
          <mxGeometry x="247.75" y="1347" width="254.25" height="90" as="geometry" />
        </mxCell>
        <mxCell id="h-v0uyKteCco3msM5NHK-4" value="" style="endArrow=classic;html=1;rounded=0;exitX=0.5;exitY=1;exitDx=0;exitDy=0;exitPerimeter=0;entryX=0.5;entryY=0;entryDx=0;entryDy=0;" edge="1" parent="1" source="h-v0uyKteCco3msM5NHK-2" target="h-v0uyKteCco3msM5NHK-3">
          <mxGeometry width="50" height="50" relative="1" as="geometry">
            <mxPoint x="100.75" y="1370" as="sourcePoint" />
            <mxPoint x="150.75" y="1320" as="targetPoint" />
          </mxGeometry>
        </mxCell>
        <mxCell id="h-v0uyKteCco3msM5NHK-5" value="" style="endArrow=classic;html=1;rounded=0;exitX=0.5;exitY=1;exitDx=0;exitDy=0;" edge="1" parent="1" source="h-v0uyKteCco3msM5NHK-3">
          <mxGeometry width="50" height="50" relative="1" as="geometry">
            <mxPoint x="590" y="1337" as="sourcePoint" />
            <mxPoint x="375" y="1471" as="targetPoint" />
          </mxGeometry>
        </mxCell>
        <mxCell id="h-v0uyKteCco3msM5NHK-6" value="OPD 기능동작" style="rounded=0;whiteSpace=wrap;html=1;align=center;" vertex="1" parent="1">
          <mxGeometry x="100" y="1230" width="150" height="27" as="geometry" />
        </mxCell>
      </root>
    </mxGraphModel>
  </diagram>
</mxfile>
